<svg xmlns="http://www.w3.org/2000/svg" width="960" height="695" viewBox="0 0 960 695" role="img" aria-labelledby="title desc">
<title id="title">Questões por assunto</title>
<desc id="desc">Número de arquivos Rnw por assunto no banco de questões.</desc>
<rect width="100%" height="100%" fill="white"/>
<style>text{font-family:-apple-system,BlinkMacSystemFont,&quot;Segoe UI&quot;,Arial,sans-serif;fill:#24292f}.title{font-size:24px;font-weight:700}.subtitle{font-size:13px;fill:#57606a}.axis{font-size:12px;fill:#57606a}.label{font-size:12px}.value{font-size:12px;font-weight:600}.grid{stroke:#d8dee4;stroke-dasharray:3 3}.bar{fill:#4f8cc9}</style>
<text x="235" y="30" class="title">Questões por assunto</text>
<text x="235" y="52" class="subtitle">Total: 204 questões em 19 assuntos</text>
<line x1="235.0" x2="235.0" y1="60" y2="645" class="grid"/>
<text x="235.0" y="670" text-anchor="middle" class="axis">0</text>
<line x1="391.0" x2="391.0" y1="60" y2="645" class="grid"/>
<text x="391.0" y="670" text-anchor="middle" class="axis">10</text>
<line x1="546.9" x2="546.9" y1="60" y2="645" class="grid"/>
<text x="546.9" y="670" text-anchor="middle" class="axis">20</text>
<line x1="702.9" x2="702.9" y1="60" y2="645" class="grid"/>
<text x="702.9" y="670" text-anchor="middle" class="axis">30</text>
<line x1="858.8" x2="858.8" y1="60" y2="645" class="grid"/>
<text x="858.8" y="670" text-anchor="middle" class="axis">40</text>
<line x1="890.0" x2="890.0" y1="60" y2="645" class="grid"/>
<text x="890.0" y="670" text-anchor="middle" class="axis">42</text>
<text x="562.5" y="688" text-anchor="middle" class="axis">Número de questões</text>
<text x="223" y="85.8" text-anchor="end" class="label">calorimetria</text>
<rect x="235" y="70" width="655.0" height="22" rx="4" class="bar"/>
<text x="898.0" y="85.8" class="value">42</text>
<text x="223" y="115.8" text-anchor="end" class="label">trabalhopotencia</text>
<rect x="235" y="100" width="374.3" height="22" rx="4" class="bar"/>
<text x="617.3" y="115.8" class="value">24</text>
<text x="223" y="145.8" text-anchor="end" class="label">estatica</text>
<rect x="235" y="130" width="358.6" height="22" rx="4" class="bar"/>
<text x="601.6" y="145.8" class="value">23</text>
<text x="223" y="175.8" text-anchor="end" class="label">calortemp</text>
<rect x="235" y="160" width="296.3" height="22" rx="4" class="bar"/>
<text x="539.3" y="175.8" class="value">19</text>
<text x="223" y="205.8" text-anchor="end" class="label">cinematica/MU</text>
<rect x="235" y="190" width="296.3" height="22" rx="4" class="bar"/>
<text x="539.3" y="205.8" class="value">19</text>
<text x="223" y="235.8" text-anchor="end" class="label">hidrostatica</text>
<rect x="235" y="220" width="233.9" height="22" rx="4" class="bar"/>
<text x="476.9" y="235.8" class="value">15</text>
<text x="223" y="265.8" text-anchor="end" class="label">leidosgases</text>
<rect x="235" y="250" width="218.3" height="22" rx="4" class="bar"/>
<text x="461.3" y="265.8" class="value">14</text>
<text x="223" y="295.8" text-anchor="end" class="label">termodinamica</text>
<rect x="235" y="280" width="140.4" height="22" rx="4" class="bar"/>
<text x="383.4" y="295.8" class="value">9</text>
<text x="223" y="325.8" text-anchor="end" class="label">optica</text>
<rect x="235" y="310" width="124.8" height="22" rx="4" class="bar"/>
<text x="367.8" y="325.8" class="value">8</text>
<text x="223" y="355.8" text-anchor="end" class="label">nc_og</text>
<rect x="235" y="340" width="93.6" height="22" rx="4" class="bar"/>
<text x="336.6" y="355.8" class="value">6</text>
<text x="223" y="385.8" text-anchor="end" class="label">qtdmov_impulso</text>
<rect x="235" y="370" width="93.6" height="22" rx="4" class="bar"/>
<text x="336.6" y="385.8" class="value">6</text>
<text x="223" y="415.8" text-anchor="end" class="label">dilatterm</text>
<rect x="235" y="400" width="46.8" height="22" rx="4" class="bar"/>
<text x="289.8" y="415.8" class="value">3</text>
<text x="223" y="445.8" text-anchor="end" class="label">eletromagnetismo/eletrostática</text>
<rect x="235" y="430" width="46.8" height="22" rx="4" class="bar"/>
<text x="289.8" y="445.8" class="value">3</text>
<text x="223" y="475.8" text-anchor="end" class="label">movcircular</text>
<rect x="235" y="460" width="46.8" height="22" rx="4" class="bar"/>
<text x="289.8" y="475.8" class="value">3</text>
<text x="223" y="505.8" text-anchor="end" class="label">ondas</text>
<rect x="235" y="490" width="46.8" height="22" rx="4" class="bar"/>
<text x="289.8" y="505.8" class="value">3</text>
<text x="223" y="535.8" text-anchor="end" class="label">acel</text>
<rect x="235" y="520" width="31.2" height="22" rx="4" class="bar"/>
<text x="274.2" y="535.8" class="value">2</text>
<text x="223" y="565.8" text-anchor="end" class="label">introfisica</text>
<rect x="235" y="550" width="31.2" height="22" rx="4" class="bar"/>
<text x="274.2" y="565.8" class="value">2</text>
<text x="223" y="595.8" text-anchor="end" class="label">leisdenewton/atrito</text>
<rect x="235" y="580" width="31.2" height="22" rx="4" class="bar"/>
<text x="274.2" y="595.8" class="value">2</text>
<text x="223" y="625.8" text-anchor="end" class="label">unidadeseconv</text>
<rect x="235" y="610" width="15.6" height="22" rx="4" class="bar"/>
<text x="258.6" y="625.8" class="value">1</text>
</svg>
